<?xml version="1.0" encoding="UTF-8" standalone="no"?>
<!-- Created with Inkscape (http://www.inkscape.org/) -->

<svg
   xmlns:dc="http://purl.org/dc/elements/1.1/"
   xmlns:cc="http://creativecommons.org/ns#"
   xmlns:rdf="http://www.w3.org/1999/02/22-rdf-syntax-ns#"
   xmlns:svg="http://www.w3.org/2000/svg"
   xmlns="http://www.w3.org/2000/svg"
   xmlns:sodipodi="http://sodipodi.sourceforge.net/DTD/sodipodi-0.dtd"
   xmlns:inkscape="http://www.inkscape.org/namespaces/inkscape"
   width="24"
   height="24"
   viewBox="0 0 6.3499999 6.3500002"
   version="1.1"
   id="svg8"
   inkscape:version="0.92.3 (2405546, 2018-03-11)"
   sodipodi:docname="algorithmimport.svg"
   inkscape:export-filename="H:\TK\valkyrie\work\eclipse\modelio.app\xmi\icons\xmi.png"
   inkscape:export-xdpi="96"
   inkscape:export-ydpi="96">
  <defs
     id="defs2" />
  <sodipodi:namedview
     id="base"
     pagecolor="#ffffff"
     bordercolor="#666666"
     borderopacity="1.0"
     inkscape:pageopacity="0.0"
     inkscape:pageshadow="2"
     inkscape:zoom="35.416666"
     inkscape:cx="2.7539785"
     inkscape:cy="14.639097"
     inkscape:document-units="px"
     inkscape:current-layer="layer2"
     showgrid="true"
     units="px"
     inkscape:pagecheckerboard="true"
     inkscape:window-width="1920"
     inkscape:window-height="1017"
     inkscape:window-x="1672"
     inkscape:window-y="-8"
     inkscape:window-maximized="1">
    <inkscape:grid
       type="xygrid"
       id="grid4485" />
  </sodipodi:namedview>
  <metadata
     id="metadata5">
    <rdf:RDF>
      <cc:Work
         rdf:about="">
        <dc:format>image/svg+xml</dc:format>
        <dc:type
           rdf:resource="http://purl.org/dc/dcmitype/StillImage" />
        <dc:title />
      </cc:Work>
    </rdf:RDF>
  </metadata>
  <g
     inkscape:groupmode="layer"
     id="layer2"
     inkscape:label="table"
     style="display:inline">
    <path
       style="display:inline;fill:#ffffff;fill-opacity:1;fill-rule:evenodd;stroke:#5fa2cd;stroke-width:0.5291667;stroke-linecap:butt;stroke-linejoin:miter;stroke-miterlimit:4;stroke-dasharray:none;stroke-opacity:1;paint-order:stroke fill markers"
       d="M 5.9001259,6.0336483 H 3.6358526 c 0,0 -0.1825784,0.010911 -0.1882151,-0.1751129 V 2.5136398 c 0,-0.1860336 0.1857987,-0.1857987 0.1857987,-0.1857987 l 1.525529,-4e-7 0.9264515,1.1117427 v 2.4087745 c 0,0 0.00649,0.1909252 -0.1852908,0.1852904 z"
       id="path9027"
       inkscape:connector-curvature="0"
       sodipodi:nodetypes="ccccccccc" />
    <path
       style="display:inline;fill:#5fa2cd;fill-opacity:1;fill-rule:evenodd;stroke:none;stroke-width:0.09289972px;stroke-linecap:butt;stroke-linejoin:miter;stroke-opacity:1"
       d="m 5.2382508,2.1479385 -0.00305,1.2916449 H 6.35 Z"
       id="path9030"
       inkscape:connector-curvature="0"
       sodipodi:nodetypes="cccc" />
    <path
       style="fill:none;fill-rule:evenodd;stroke:#5fa2cd;stroke-width:0.26458335px;stroke-linecap:butt;stroke-linejoin:miter;stroke-opacity:1"
       d="M 4.3268778,4.2333334 3.7977112,4.7625001 4.3268778,5.2916668"
       id="path849"
       inkscape:connector-curvature="0" />
    <path
       style="fill:none;fill-rule:evenodd;stroke:#5fa2cd;stroke-width:0.26458335px;stroke-linecap:butt;stroke-linejoin:miter;stroke-opacity:1"
       d="M 4.5914612,5.2916669 5.1206279,4.2333335"
       id="path866"
       inkscape:connector-curvature="0" />
    <path
       style="display:inline;fill:none;fill-rule:evenodd;stroke:#5fa2cd;stroke-width:0.26458335px;stroke-linecap:butt;stroke-linejoin:miter;stroke-opacity:1"
       d="M 5.2916668,4.2333333 5.8208334,4.7625 5.2916668,5.2916667"
       id="path849-5"
       inkscape:connector-curvature="0" />
    <rect
       style="display:inline;fill:#feefbe;fill-opacity:1;stroke:#b98509;stroke-width:0.43206286;stroke-linecap:square;stroke-linejoin:miter;stroke-miterlimit:4;stroke-dasharray:none;stroke-dashoffset:0;stroke-opacity:1;paint-order:stroke fill markers"
       id="rect864"
       width="3.7041667"
       height="3.175"
       x="0.26458335"
       y="0.26458335"
       ry="0.907143" />
    <g
       aria-label="O"
       transform="matrix(0.81007133,0,0,0.60969666,-0.26267084,-0.46514146)"
       style="font-style:normal;font-variant:normal;font-weight:normal;font-stretch:normal;font-size:1.18119681px;line-height:125%;font-family:Calibri;-inkscape-font-specification:Calibri;letter-spacing:0px;word-spacing:0px;display:inline;fill:#b9850a;fill-opacity:1;stroke:none;stroke-width:0.22147436px;stroke-linecap:butt;stroke-linejoin:miter;stroke-opacity:1"
       id="text871">
      <path
         d="m 2.8973629,4.0296265 q 0,0.5228296 -0.2704986,0.8155334 Q 2.3563656,5.135845 1.9021701,5.135845 1.4540305,5.135845 1.1895878,4.8451599 0.92514502,4.5524561 0.92514502,4.0296265 V 3.2221678 q 0,-0.5208109 0.26444278,-0.8155333 0.2664613,-0.2947224 0.7125823,-0.2947224 0.4521769,0 0.7226755,0.2947224 0.2725173,0.2947224 0.2725173,0.8155333 z M 2.4895963,3.2161119 q 0,-0.3835429 -0.1534172,-0.5813703 -0.1534171,-0.199846 -0.434009,-0.199846 -0.2765546,0 -0.4239159,0.199846 Q 1.330893,2.832569 1.330893,3.2161119 v 0.8135146 q 0,0.3875802 0.1473612,0.5874263 0.1493799,0.199846 0.4239159,0.199846 0.2826105,0 0.434009,-0.1978274 0.1534172,-0.199846 0.1534172,-0.5894449 z"
         style="font-style:normal;font-variant:normal;font-weight:normal;font-stretch:normal;font-size:4.13418865px;font-family:'Roboto Condensed';-inkscape-font-specification:'Roboto Condensed, ';fill:#b9850a;fill-opacity:1;stroke-width:0.22147436px"
         id="path877"
         inkscape:connector-curvature="0" />
    </g>
    <g
       aria-label="()"
       transform="matrix(0.80028048,0,0,0.74502421,-0.2731602,-0.91970324)"
       style="font-style:normal;font-variant:normal;font-weight:normal;font-stretch:normal;font-size:2.95901823px;line-height:125%;font-family:'Oswald Regular';-inkscape-font-specification:'Oswald Regular, ';letter-spacing:0px;word-spacing:0px;display:inline;fill:#b9850a;fill-opacity:1;stroke:none;stroke-width:0.18493864px;stroke-linecap:butt;stroke-linejoin:miter;stroke-opacity:1"
       id="text869">
      <path
         d="m 3.2787758,3.559757 q 0,-0.5548159 0.1892732,-0.9507002 0.1892731,-0.3973291 0.4291154,-0.5158054 h 0.00867 l 0.072242,0.2066111 Q 3.8263676,2.4414562 3.7208948,2.7593195 3.6168668,3.0757379 3.6168668,3.5568673 v 0.040455 q 0,0.4811294 0.104028,0.7975478 0.1040279,0.3164185 0.2571803,0.4609018 l -0.072242,0.2037215 h -0.00867 Q 3.6573221,4.9410175 3.468049,4.546578 3.2787758,4.1521386 3.2787758,3.594433 Z"
         style="font-style:normal;font-variant:normal;font-weight:bold;font-stretch:condensed;font-size:2.95901823px;font-family:'Roboto Condensed';-inkscape-font-specification:'Roboto Condensed, Bold Condensed';fill:#b9850a;fill-opacity:1;stroke-width:0.18493864px"
         id="path885"
         inkscape:connector-curvature="0" />
      <path
         d="m 4.8131886,3.594433 q 0,0.5418124 -0.1979422,0.9449209 -0.1979421,0.4045532 -0.4421189,0.5201399 h -0.00867 L 4.0893272,4.8557723 Q 4.2395898,4.7141787 4.3450627,4.3963154 4.4505355,4.0784521 4.4505355,3.5973227 v -0.040455 q 0,-0.4796846 -0.1069177,-0.7989927 Q 4.238145,2.4385665 4.0893272,2.2969729 l 0.075131,-0.2037215 h 0.00867 Q 4.4173043,2.208838 4.6152464,2.6148361 4.8131886,3.0208342 4.8131886,3.559757 Z"
         style="font-style:normal;font-variant:normal;font-weight:bold;font-stretch:condensed;font-size:2.95901823px;font-family:'Roboto Condensed';-inkscape-font-specification:'Roboto Condensed, Bold Condensed';fill:#b9850a;fill-opacity:1;stroke-width:0.18493864px"
         id="path887"
         inkscape:connector-curvature="0" />
    </g>
    <path
       style="display:inline;fill:#115100;fill-opacity:1;fill-rule:evenodd;stroke:none;stroke-width:0.26458335px;stroke-linecap:butt;stroke-linejoin:miter;stroke-opacity:1"
       d="M 1.3229167,2.38125 2.2528055,3.1750002 H 0.40072223 Z"
       id="path846-8-5"
       inkscape:connector-curvature="0"
       sodipodi:nodetypes="cccc" />
    <path
       style="display:inline;fill:none;fill-rule:evenodd;stroke:#115100;stroke-width:0.25831518px;stroke-linecap:butt;stroke-linejoin:miter;stroke-opacity:1"
       d="M 3.1750002,4.9146937 H 2.1818225 c 0,0 -0.8589058,-0.1232368 -0.8589058,-0.9359155 V 3.175"
       id="path863-1"
       inkscape:connector-curvature="0"
       sodipodi:nodetypes="ccsc" />
  </g>
</svg>
