<?xml version="1.0" encoding="UTF-8" standalone="no"?>
<!-- Created with Inkscape (http://www.inkscape.org/) -->

<svg
   xmlns:dc="http://purl.org/dc/elements/1.1/"
   xmlns:cc="http://creativecommons.org/ns#"
   xmlns:rdf="http://www.w3.org/1999/02/22-rdf-syntax-ns#"
   xmlns:svg="http://www.w3.org/2000/svg"
   xmlns="http://www.w3.org/2000/svg"
   xmlns:sodipodi="http://sodipodi.sourceforge.net/DTD/sodipodi-0.dtd"
   xmlns:inkscape="http://www.inkscape.org/namespaces/inkscape"
   width="24"
   height="24"
   viewBox="0 0 6.3499999 6.3500002"
   version="1.1"
   id="svg8"
   inkscape:version="0.92.3 (2405546, 2018-03-11)"
   sodipodi:docname="communicationexport.svg"
   inkscape:export-filename="H:\TK\valkyrie\work\eclipse\modelio.app\xmi\icons\xmi.png"
   inkscape:export-xdpi="96"
   inkscape:export-ydpi="96">
  <defs
     id="defs2" />
  <sodipodi:namedview
     id="base"
     pagecolor="#ffffff"
     bordercolor="#666666"
     borderopacity="1.0"
     inkscape:pageopacity="0.0"
     inkscape:pageshadow="2"
     inkscape:zoom="17.708333"
     inkscape:cx="6.8329414"
     inkscape:cy="7.5701347"
     inkscape:document-units="px"
     inkscape:current-layer="layer2"
     showgrid="true"
     units="px"
     inkscape:pagecheckerboard="true"
     inkscape:window-width="1680"
     inkscape:window-height="987"
     inkscape:window-x="-8"
     inkscape:window-y="16"
     inkscape:window-maximized="1">
    <inkscape:grid
       type="xygrid"
       id="grid4485" />
  </sodipodi:namedview>
  <metadata
     id="metadata5">
    <rdf:RDF>
      <cc:Work
         rdf:about="">
        <dc:format>image/svg+xml</dc:format>
        <dc:type
           rdf:resource="http://purl.org/dc/dcmitype/StillImage" />
        <dc:title />
      </cc:Work>
    </rdf:RDF>
  </metadata>
  <g
     inkscape:groupmode="layer"
     id="layer2"
     inkscape:label="table"
     style="display:inline">
    <rect
       style="display:inline;fill:#feefbe;fill-opacity:1;stroke:#b98509;stroke-width:0.43206286;stroke-linecap:square;stroke-linejoin:miter;stroke-miterlimit:4;stroke-dasharray:none;stroke-dashoffset:0;stroke-opacity:1;paint-order:stroke fill markers"
       id="rect864"
       width="3.7041667"
       height="3.175"
       x="0.26458335"
       y="0.26458335"
       ry="0.907143" />
    <path
       style="display:inline;fill:#ffffff;fill-opacity:1;fill-rule:evenodd;stroke:#5fa2cd;stroke-width:0.5291667;stroke-linecap:butt;stroke-linejoin:miter;stroke-miterlimit:4;stroke-dasharray:none;stroke-opacity:1;paint-order:stroke fill markers"
       d="M 5.9001259,6.0336483 H 3.6358526 c 0,0 -0.1825784,0.010911 -0.1882151,-0.1751129 V 2.5136398 c 0,-0.1860336 0.1857987,-0.1857987 0.1857987,-0.1857987 l 1.525529,-4e-7 0.9264515,1.1117427 v 2.4087745 c 0,0 0.00649,0.1909252 -0.1852908,0.1852904 z"
       id="path9027"
       inkscape:connector-curvature="0"
       sodipodi:nodetypes="ccccccccc" />
    <path
       style="display:inline;fill:#5fa2cd;fill-opacity:1;fill-rule:evenodd;stroke:none;stroke-width:0.09289972px;stroke-linecap:butt;stroke-linejoin:miter;stroke-opacity:1"
       d="m 5.2382508,2.1479385 -0.00305,1.2916449 H 6.35 Z"
       id="path9030"
       inkscape:connector-curvature="0"
       sodipodi:nodetypes="cccc" />
    <path
       style="fill:#115100;fill-opacity:1;fill-rule:evenodd;stroke:none;stroke-width:0.26458335px;stroke-linecap:butt;stroke-linejoin:miter;stroke-opacity:1"
       d="M 5.426137,3.7047236 6.3560257,2.9109738 H 4.5039423 Z"
       id="path846-8"
       inkscape:connector-curvature="0"
       sodipodi:nodetypes="cccc" />
    <path
       style="fill:none;fill-rule:evenodd;stroke:#5fa2cd;stroke-width:0.26458335px;stroke-linecap:butt;stroke-linejoin:miter;stroke-opacity:1"
       d="M 4.3268778,4.2333334 3.7977112,4.7625001 4.3268778,5.2916668"
       id="path849"
       inkscape:connector-curvature="0" />
    <path
       style="fill:none;fill-rule:evenodd;stroke:#5fa2cd;stroke-width:0.26458335px;stroke-linecap:butt;stroke-linejoin:miter;stroke-opacity:1"
       d="M 4.5914612,5.2916669 5.1206279,4.2333335"
       id="path866"
       inkscape:connector-curvature="0" />
    <path
       style="display:inline;fill:none;fill-rule:evenodd;stroke:#5fa2cd;stroke-width:0.26458335px;stroke-linecap:butt;stroke-linejoin:miter;stroke-opacity:1"
       d="M 5.2916668,4.2333333 5.8208334,4.7625 5.2916668,5.2916667"
       id="path849-5"
       inkscape:connector-curvature="0" />
    <g
       transform="matrix(0.02770015,0,0,0.03018675,0.42824245,-0.02882286)"
       id="g14">
      <g
         id="g10">
        <path
           inkscape:connector-curvature="0"
           d="m 73.143,79.904 c -2.585,-1.189 -5.692,-2.014 -9.139,-2.01 -3.446,-0.004 -6.553,0.82 -9.137,2.01 -2.609,1.201 -4.702,2.736 -6.365,4.236 l 8.505,8.506 c 0.894,-0.744 1.919,-1.426 3.031,-1.912 1.199,-0.52 2.473,-0.836 3.965,-0.84 1.564,0.004 2.891,0.352 4.139,0.918 1.047,0.475 2.007,1.137 2.855,1.842 l 8.515,-8.514 c -0.008,-0.008 -0.016,-0.016 -0.023,-0.021 -1.657,-1.49 -3.753,-3.023 -6.346,-4.215 z"
           style="fill:#2f3435"
           id="path2" />
        <path
           inkscape:connector-curvature="0"
           d="m 80.057,62.309 c -4.579,-2.104 -9.994,-3.537 -16.047,-3.533 -6.053,-0.004 -11.466,1.429 -16.045,3.531 -5.233,2.405 -9.402,5.632 -12.597,8.701 l 8.486,8.486 c 0.45,-0.426 0.917,-0.854 1.411,-1.275 2.287,-1.965 5.03,-3.842 8.151,-5.205 3.128,-1.365 6.615,-2.234 10.594,-2.238 4.171,0.004 7.806,0.961 11.048,2.441 3.594,1.641 6.674,3.975 9.104,6.273 l 8.486,-8.486 c -0.391,-0.375 -0.793,-0.752 -1.213,-1.131 -3.013,-2.707 -6.79,-5.46 -11.378,-7.564 z"
           style="fill:#2f3435"
           id="path4" />
        <path
           inkscape:connector-curvature="0"
           d="M 104.078,55.731 C 99.628,51.732 94.068,47.688 87.367,44.615 80.674,41.543 72.814,39.464 63.998,39.468 55.183,39.465 47.324,41.542 40.632,44.613 32.891,48.168 26.684,52.996 21.94,57.58 l 8.487,8.487 c 0.602,-0.578 1.22,-1.156 1.874,-1.734 3.733,-3.307 8.295,-6.542 13.581,-8.925 5.294,-2.384 11.29,-3.937 18.116,-3.94 6.934,0.003 13.014,1.606 18.369,4.056 6.101,2.788 11.225,6.728 15.211,10.55 l 8.484,-8.484 c -0.638,-0.617 -1.292,-1.236 -1.984,-1.859 z"
           style="fill:#2f3435"
           id="path6" />
        <path
           inkscape:connector-curvature="0"
           d="M 97.259,27.395 C 87.709,23.014 76.544,20.062 63.994,20.065 51.444,20.062 40.282,23.011 30.734,27.39 21.393,31.677 13.585,37.291 7.27,42.909 l 8.502,8.502 c 5.602,-4.907 12.416,-9.71 20.346,-13.286 8.119,-3.658 17.374,-6.056 27.876,-6.06 10.668,0.003 20.053,2.479 28.266,6.239 7.766,3.553 14.46,8.291 19.973,13.117 l 8.498,-8.498 C 114.414,37.307 106.601,31.678 97.259,27.395 Z"
           style="fill:#2f3435"
           id="path8" />
      </g>
      <circle
         cx="64.008003"
         cy="102.109"
         r="5.8249998"
         style="fill:#2f3435"
         id="circle12" />
    </g>
    <path
       style="stroke-width:0.05647059;fill:#b98509;fill-opacity:1"
       d="M 13.016471,5.4143345 C 12.581244,5.0132403 11.715353,4.4358602 11.173869,4.1856795 10.099476,3.689279 9.1845952,3.5035113 8.047059,3.5507762 6.519991,3.6142264 5.2059643,4.1380186 3.8511331,5.2233402 L 3.2553842,5.7005798 2.8440651,5.2516468 2.4327461,4.8027137 2.6422555,4.5857575 C 2.963351,4.253249 3.8769418,3.5819538 4.4376919,3.266493 5.0638181,2.9142537 5.8247202,2.6078463 6.5392408,2.420221 7.2970692,2.2212236 8.7654236,2.1717127 9.5837113,2.3175657 10.289641,2.4433919 11.144027,2.721796 11.750166,3.0235111 c 0.658706,0.3278805 1.67227,1.0149709 2.11109,1.4310971 l 0.366939,0.3479629 -0.436451,0.4620073 -0.43645,0.4620072 z"
       id="path839"
       inkscape:connector-curvature="0"
       transform="scale(0.26458334)" />
    <path
       style="fill:none;fill-rule:evenodd;stroke:#115100;stroke-width:0.26458335px;stroke-linecap:butt;stroke-linejoin:miter;stroke-opacity:1"
       d="m 3.4375812,1.2030565 h 1.0663611 c 0,0 0.9221952,0.1204172 0.9221952,0.9145018 v 0.7853878"
       id="path863"
       inkscape:connector-curvature="0"
       sodipodi:nodetypes="ccsc" />
    <path
       style="fill:#b98509;fill-opacity:1;stroke-width:0.05647059"
       d="M 4.3529709,6.9070269 3.9341769,6.4461748 4.2965003,6.1181753 C 5.069641,5.4182767 5.95394,4.9038571 6.8611767,4.6262368 c 0.4639088,-0.1419592 0.5895003,-0.1558271 1.44,-0.1590063 0.8086678,-0.00302 0.9914481,0.013604 1.3835294,0.125854 0.9419109,0.2696622 2.0801719,0.9419179 2.7354859,1.6155763 l 0.250779,0.2577998 -0.136407,0.1562906 C 12.45954,6.708711 12.273476,6.9102717 12.12109,7.0706639 L 11.844023,7.362286 11.392618,6.9778832 C 10.122739,5.8964907 8.6861779,5.5134983 7.2564708,5.8751709 6.5583944,6.0517631 5.3938957,6.7450817 4.946542,7.250455 4.8873754,7.3172954 4.823846,7.3710595 4.8053656,7.369931 4.7868852,7.3688027 4.5833076,7.1604956 4.3529709,6.9070269 Z"
       id="path841"
       inkscape:connector-curvature="0"
       transform="scale(0.26458334)" />
    <path
       style="fill:#b98509;fill-opacity:1;stroke-width:0.05647059"
       d="M 5.7741178,8.4489852 C 5.5489414,8.2027815 5.3647061,7.9896784 5.3647061,7.9754226 c 0,-0.053298 0.7732556,-0.6541253 1.0537436,-0.8187692 1.056646,-0.6202416 2.3812617,-0.6875955 3.4628623,-0.1760793 0.407725,0.1928236 0.965921,0.577938 1.207353,0.8329862 0.190101,0.2008225 0.188517,0.2044472 -0.324535,0.7423282 L 10.44129,8.8943527 10.036585,8.5860155 C 8.892937,7.7146906 7.6399416,7.7347225 6.5258755,8.6421417 6.3539923,8.7821426 6.2066486,8.8966751 6.1984451,8.8966585 6.1902415,8.8966418 5.9992943,8.6951887 5.7741178,8.4489852 Z"
       id="path843"
       inkscape:connector-curvature="0"
       transform="scale(0.26458334)" />
    <path
       style="fill:#b98509;fill-opacity:1;stroke-width:0.05647059"
       d="M 7.1466066,9.9429859 6.7209187,9.474099 6.91602,9.325288 C 7.4634446,8.9077469 8.102934,8.7304602 8.6658713,8.8401739 9.0446747,8.9140008 9.5796458,9.174692 9.7715603,9.3789756 L 9.896473,9.511939 9.4828071,9.9590635 9.0691412,10.406188 8.8179247,10.272615 c -0.3335066,-0.177327 -0.6941704,-0.176067 -1.008248,0.0035 l -0.2373823,0.135736 z"
       id="path845"
       inkscape:connector-curvature="0"
       transform="scale(0.26458334)" />
    <path
       style="fill:#b98509;fill-opacity:1;stroke-width:0.05647059"
       d="m 7.9686061,12.027402 c -0.2889035,-0.243096 -0.3058144,-0.658493 -0.038547,-0.946879 0.1882293,-0.203103 0.5744543,-0.214046 0.7554316,-0.0214 0.1923051,0.2047 0.2580804,0.453938 0.1812406,0.686765 -0.137524,0.416702 -0.5746372,0.553716 -0.8981247,0.281519 z"
       id="path847"
       inkscape:connector-curvature="0"
       transform="scale(0.26458334)" />
  </g>
</svg>
